<svg xmlns="http://www.w3.org/2000/svg" width="1200" height="420" viewBox="0 0 1200 420" role="img" aria-label="UPI FlowPilot unique system map">
  <defs>
    <linearGradient id="g" x1="0" y1="0" x2="1" y2="1">
      <stop offset="0%" stop-color="#f97316"/>
      <stop offset="100%" stop-color="#06b6d4"/>
    </linearGradient>
    <filter id="shadow"><feDropShadow dx="0" dy="14" stdDeviation="16" flood-color="#0f172a" flood-opacity=".18"/></filter>
  </defs>
  <rect width="1200" height="420" rx="28" fill="#f8fafc"/>
  <path d="M0 70 C180 20 310 120 470 70 C670 8 780 120 960 68 C1070 36 1140 48 1200 70 L1200 0 L0 0 Z" fill="url(#g)" opacity=".18"/>
  <text x="60" y="62" font-family="Inter, Segoe UI, Arial" font-size="34" font-weight="800" fill="#0f172a">UPI FlowPilot</text>
  <text x="60" y="96" font-family="Inter, Segoe UI, Arial" font-size="17" fill="#475569">Real-time UPI checkout reliability and payment-flow recovery engine.</text>
  <g filter="url(#shadow)">
      <rect x="70" y="150" width="220" height="132" rx="18" fill="#ffffff" stroke="#dbe3ef"/>
      <circle cx="104" cy="184" r="14" fill="#f97316" opacity=".85"/>
      <text x="128" y="190" font-family="Inter, Segoe UI, Arial" font-size="18" font-weight="800" fill="#0f172a">Overview</text>
      <text x="94" y="226" font-family="Inter, Segoe UI, Arial" font-size="13" fill="#64748b">CTA, drill-down, API,</text>
      <text x="94" y="248" font-family="Inter, Segoe UI, Arial" font-size="13" fill="#64748b">reason codes, and RBAC</text>
    </g><path d="M300 216 L335 216" stroke="#f97316" stroke-width="5" stroke-linecap="round"/>
  <g filter="url(#shadow)">
      <rect x="345" y="150" width="220" height="132" rx="18" fill="#ffffff" stroke="#dbe3ef"/>
      <circle cx="379" cy="184" r="14" fill="#f97316" opacity=".85"/>
      <text x="403" y="190" font-family="Inter, Segoe UI, Arial" font-size="18" font-weight="800" fill="#0f172a">Flow Optimizer</text>
      <text x="369" y="226" font-family="Inter, Segoe UI, Arial" font-size="13" fill="#64748b">CTA, drill-down, API,</text>
      <text x="369" y="248" font-family="Inter, Segoe UI, Arial" font-size="13" fill="#64748b">reason codes, and RBAC</text>
    </g><path d="M575 216 L610 216" stroke="#f97316" stroke-width="5" stroke-linecap="round"/>
  <g filter="url(#shadow)">
      <rect x="620" y="150" width="220" height="132" rx="18" fill="#ffffff" stroke="#dbe3ef"/>
      <circle cx="654" cy="184" r="14" fill="#f97316" opacity=".85"/>
      <text x="678" y="190" font-family="Inter, Segoe UI, Arial" font-size="18" font-weight="800" fill="#0f172a">Transactions</text>
      <text x="644" y="226" font-family="Inter, Segoe UI, Arial" font-size="13" fill="#64748b">CTA, drill-down, API,</text>
      <text x="644" y="248" font-family="Inter, Segoe UI, Arial" font-size="13" fill="#64748b">reason codes, and RBAC</text>
    </g><path d="M850 216 L885 216" stroke="#f97316" stroke-width="5" stroke-linecap="round"/>
  <g filter="url(#shadow)">
      <rect x="895" y="150" width="220" height="132" rx="18" fill="#ffffff" stroke="#dbe3ef"/>
      <circle cx="929" cy="184" r="14" fill="#f97316" opacity=".85"/>
      <text x="953" y="190" font-family="Inter, Segoe UI, Arial" font-size="18" font-weight="800" fill="#0f172a">Reliability SRE</text>
      <text x="919" y="226" font-family="Inter, Segoe UI, Arial" font-size="13" fill="#64748b">CTA, drill-down, API,</text>
      <text x="919" y="248" font-family="Inter, Segoe UI, Arial" font-size="13" fill="#64748b">reason codes, and RBAC</text>
    </g>
  <rect x="380" y="330" width="440" height="48" rx="24" fill="url(#g)"/>
  <text x="438" y="361" font-family="Inter, Segoe UI, Arial" font-size="18" font-weight="800" fill="#ffffff">Mock NPCI/UPI Sandbox + Synthetic AI Model Layer</text>
</svg>